<?xml version="1.0" standalone="no"?>
<!DOCTYPE svg PUBLIC "-//W3C//DTD SVG 20010904//EN"
 "http://www.w3.org/TR/2001/REC-SVG-20010904/DTD/svg10.dtd">
<svg version="1.0" xmlns="http://www.w3.org/2000/svg"
 width="581.000000pt" height="581.000000pt" viewBox="0 0 581.000000 581.000000"
 preserveAspectRatio="xMidYMid meet">
<metadata>
Created by potrace 1.14, written by Peter Selinger 2001-2017
</metadata>
<g transform="translate(0.000000,581.000000) scale(0.100000,-0.100000)"
fill="#000000" stroke="none">
<path d="M2847 5733 c-46 -80 -248 -426 -342 -588 -29 -49 -70 -120 -92 -157
l-39 -67 -189 111 c-202 118 -386 225 -500 291 -38 22 -103 60 -142 84 -64 38
-93 50 -93 40 0 -2 20 -42 43 -88 130 -251 319 -620 417 -814 98 -196 110
-223 100 -244 -11 -24 -120 -210 -166 -282 -14 -23 -49 -52 -91 -76 -37 -22
-112 -66 -166 -97 l-98 -57 -565 286 c-311 158 -568 284 -571 281 -3 -3 4 -20
15 -38 11 -18 29 -49 39 -68 11 -19 56 -96 100 -170 43 -74 108 -184 143 -245
35 -60 82 -141 105 -180 95 -160 125 -212 125 -217 0 -4 -26 -21 -57 -39 -32
-18 -110 -62 -173 -99 -63 -37 -198 -116 -300 -175 -102 -59 -220 -128 -263
-153 -42 -25 -77 -48 -77 -51 0 -3 57 -39 128 -79 70 -40 152 -88 182 -106 30
-19 173 -102 317 -185 l261 -152 -80 -137 c-75 -128 -101 -172 -242 -414 -29
-51 -93 -160 -141 -241 -48 -82 -85 -151 -82 -153 8 -9 81 27 888 435 l285
144 136 -78 c115 -67 140 -85 159 -119 12 -23 34 -61 49 -86 137 -228 150
-255 131 -275 -5 -6 -127 -244 -271 -530 -145 -286 -267 -525 -272 -532 -26
-33 22 -12 162 69 585 342 734 427 741 422 5 -2 28 -39 52 -82 25 -42 67 -115
94 -162 28 -47 105 -179 173 -295 206 -354 213 -365 219 -365 3 0 15 17 27 38
11 20 37 64 56 97 265 455 349 597 361 617 8 12 33 55 56 95 l41 72 148 -86
c81 -47 179 -104 217 -126 39 -22 177 -103 308 -179 131 -77 240 -138 242
-136 5 4 -66 147 -315 633 -75 149 -163 320 -194 381 l-57 112 59 98 c32 55
78 132 101 172 45 78 46 78 224 182 l109 63 421 -214 c677 -344 736 -373 743
-367 3 4 -6 23 -19 45 -13 21 -73 121 -132 223 -132 227 -211 362 -243 415
-117 195 -149 255 -138 263 10 8 348 206 753 440 73 43 133 80 133 84 0 3 -19
17 -42 31 -114 65 -247 142 -383 221 -82 49 -213 124 -290 169 -77 44 -146 86
-153 92 -11 10 0 34 54 126 37 63 81 139 99 169 144 248 349 597 357 608 26
31 -11 20 -129 -40 -71 -36 -324 -165 -563 -286 l-435 -220 -95 55 c-52 31
-131 77 -174 102 l-79 46 -94 156 -93 157 66 128 c251 487 513 1014 505 1014
-6 0 -48 -22 -93 -49 -393 -231 -814 -474 -824 -475 -11 -1 -187 291 -453 751
-42 73 -79 133 -82 133 -3 0 -27 -35 -52 -77z m164 -770 c13 -23 45 -78 72
-123 26 -45 47 -85 47 -89 0 -8 -220 -137 -229 -134 -6 2 -164 92 -208 119
l-22 14 37 63 c20 35 73 126 116 201 l79 137 42 -73 c23 -40 53 -92 66 -115z
m-543 -604 c-20 -13 -28 -11 -22 5 3 8 12 12 21 9 12 -5 12 -7 1 -14z m897 1
c3 -5 2 -10 -4 -10 -5 0 -13 5 -16 10 -3 6 -2 10 4 10 5 0 13 -4 16 -10z
m-347 -307 c53 -31 125 -72 159 -92 35 -20 63 -39 63 -43 0 -5 -76 -156 -168
-337 l-168 -329 -164 326 c-91 179 -165 329 -165 334 0 10 314 197 333 197 7
1 56 -24 110 -56z m662 -386 c110 -63 150 -93 150 -111 0 -8 -527 -284 -580
-304 -4 -2 44 97 107 220 63 123 121 240 130 261 l16 37 36 -21 c20 -12 83
-49 141 -82z m-1244 -156 c69 -133 128 -250 131 -258 5 -12 -573 273 -596 294
-11 9 42 46 179 127 80 47 149 84 153 83 5 -1 65 -112 133 -246z m1669 -426
c59 -102 102 -186 99 -195 -4 -11 -196 -347 -210 -368 -1 -2 -173 83 -381 190
l-380 192 333 168 c183 93 352 179 376 192 30 16 45 20 51 12 4 -6 55 -92 112
-191z m-2091 99 c105 -53 273 -138 373 -188 l182 -91 -376 -189 c-312 -157
-377 -186 -387 -175 -20 22 -206 346 -206 359 0 7 26 55 57 108 59 100 78 132
127 220 16 29 31 52 34 52 3 0 91 -43 196 -96z m2859 -213 c42 -25 77 -48 77
-51 0 -3 -60 -39 -132 -81 l-132 -76 -42 70 c-46 77 -46 71 1 147 12 19 30 48
39 63 l17 28 47 -27 c26 -15 82 -48 125 -73z m-3725 15 c23 -40 42 -77 42 -81
0 -5 -16 -36 -36 -70 l-36 -62 -124 71 c-68 39 -124 73 -124 76 0 6 221 139
230 139 3 0 24 -33 48 -73z m1927 -729 c100 -197 163 -333 158 -338 -24 -24
-319 -189 -330 -185 -12 5 -325 185 -331 191 -3 3 56 120 281 562 28 56 53
101 53 100 1 -1 77 -150 169 -330z m-650 54 c-63 -128 -119 -230 -123 -228
-114 61 -310 182 -305 188 13 12 537 278 541 274 2 -1 -49 -107 -113 -234z
m1402 -45 c3 -3 -289 -174 -308 -181 -14 -5 -39 39 -133 224 -64 126 -116 231
-116 234 0 3 543 -267 557 -277z m-1354 -786 c4 -4 -3 -11 -16 -17 -21 -10
-25 -7 -44 29 l-22 39 37 -22 c20 -12 40 -25 45 -29z m919 10 c-19 -33 -21
-34 -42 -19 -10 7 -11 12 -4 15 6 3 20 11 30 19 30 22 35 18 16 -15z m-367
-329 c64 -38 119 -72 122 -75 3 -3 -23 -54 -57 -113 -34 -59 -82 -142 -105
-183 -23 -41 -51 -90 -62 -108 l-20 -33 -65 113 c-35 62 -90 157 -122 211 -31
54 -56 103 -54 108 3 9 225 146 240 148 3 1 59 -30 123 -68z"/>
</g>
</svg>
